<svg 
  width="65" 
  height="40" 
  viewBox="0 0 65 40" 
  xmlns="http://www.w3.org/2000/svg"
  >
  <path d="M 60.596 69.385 L 60.596 73.682 L 43.066 73.682 L 43.066 70.605 L 24.463 43.896 L 17.48 43.896 L 17.48 66.797 A 1.997 1.997 0 0 0 17.722 67.737 A 2.823 2.823 0 0 0 18.042 68.213 A 2.056 2.056 0 0 0 19.042 68.871 A 3.042 3.042 0 0 0 19.678 68.994 L 25.391 69.385 L 25.391 73.682 L 0 73.682 L 0 69.385 L 5.273 68.994 Q 6.173 68.912 6.679 68.42 A 1.774 1.774 0 0 0 6.86 68.213 A 2.752 2.752 0 0 0 7.211 67.606 A 2.118 2.118 0 0 0 7.373 66.797 L 7.373 13.477 A 2.221 2.221 0 0 0 7.147 12.515 A 3.051 3.051 0 0 0 6.86 12.036 A 1.751 1.751 0 0 0 5.865 11.367 A 2.734 2.734 0 0 0 5.273 11.279 L 0 10.889 L 0 6.592 L 25.391 6.592 L 25.391 10.889 L 19.678 11.279 A 2.718 2.718 0 0 0 18.986 11.395 A 1.901 1.901 0 0 0 18.042 12.036 Q 17.48 12.744 17.48 13.477 L 17.48 39.697 L 21.094 39.697 L 42.871 13.086 A 0.646 0.646 0 0 0 43.043 12.767 A 0.969 0.969 0 0 0 43.066 12.549 A 1.733 1.733 0 0 0 43.015 12.106 Q 42.861 11.526 42.252 11.401 A 1.607 1.607 0 0 0 42.09 11.377 L 36.963 10.889 L 36.963 6.592 L 58.154 6.592 L 58.154 10.889 L 56.567 11.06 A 332.555 332.555 0 0 0 53.32 11.426 A 307.315 307.315 0 0 0 52.746 11.494 Q 51.81 11.606 51.482 11.653 A 5.171 5.171 0 0 0 51.367 11.67 L 30.957 36.084 L 53.369 68.896 L 60.596 69.385 Z M 170.068 69.775 L 170.068 73.682 L 147.803 73.682 L 147.803 69.775 L 151.904 69.482 Q 152.783 69.385 153.442 68.799 A 1.913 1.913 0 0 0 154.099 67.4 A 2.525 2.525 0 0 0 154.102 67.285 L 154.102 41.504 A 14.838 14.838 0 0 0 153.789 38.374 Q 153.3 36.11 152.051 34.399 A 5.837 5.837 0 0 0 149.651 32.53 Q 147.549 31.592 144.189 31.592 A 19.301 19.301 0 0 0 141.092 31.854 A 25.455 25.455 0 0 0 138.501 32.422 A 27.731 27.731 0 0 0 136.004 33.223 Q 134.789 33.68 133.764 34.22 A 16.143 16.143 0 0 0 133.301 34.473 L 133.301 67.285 A 3.057 3.057 0 0 0 133.41 68.14 Q 133.69 69.099 134.683 69.378 A 3.13 3.13 0 0 0 135.303 69.482 L 139.6 69.775 L 139.6 73.682 L 117.09 73.682 L 117.09 69.775 L 121.875 69.482 A 3.151 3.151 0 0 0 122.738 69.311 Q 123.694 68.962 123.911 67.941 A 3.16 3.16 0 0 0 123.975 67.285 L 123.975 7.178 L 116.504 7.178 L 116.504 3.857 L 129.297 0 L 133.301 0 L 133.301 30.469 A 39.486 39.486 0 0 1 134.738 29.621 Q 135.44 29.224 136.253 28.795 A 89.084 89.084 0 0 1 137.988 27.905 A 50.347 50.347 0 0 1 144.043 25.366 Q 147.217 24.268 149.805 24.268 Q 155.566 24.268 159.473 27.979 A 11.487 11.487 0 0 1 162.395 32.668 Q 163.379 35.532 163.379 39.404 L 163.379 67.285 Q 163.379 68.213 164.038 68.799 Q 164.697 69.385 165.576 69.482 L 170.068 69.775 Z M 218.018 62.598 L 218.018 68.701 A 51.271 51.271 0 0 1 208.96 73.096 Q 204.102 74.902 199.023 74.902 A 24.576 24.576 0 0 1 187.671 72.192 A 20.717 20.717 0 0 1 179.733 64.975 A 25.166 25.166 0 0 1 179.102 63.965 A 22.051 22.051 0 0 1 176.648 57.739 Q 175.996 54.977 175.864 51.764 A 40.482 40.482 0 0 1 175.83 50.098 A 34.018 34.018 0 0 1 176.495 43.213 A 25.786 25.786 0 0 1 178.857 36.475 A 22.725 22.725 0 0 1 184.541 29.349 A 21.861 21.861 0 0 1 187.207 27.466 A 22.492 22.492 0 0 1 197.231 24.346 A 27.439 27.439 0 0 1 199.316 24.268 Q 208.643 24.268 213.33 30.054 A 20.602 20.602 0 0 1 217.513 39.251 A 28.896 28.896 0 0 1 218.018 44.775 L 218.018 46.069 A 11.686 11.686 0 0 1 217.987 46.937 A 9.268 9.268 0 0 1 217.92 47.559 L 185.498 47.559 A 36.367 36.367 0 0 0 186.304 55.151 A 21.77 21.77 0 0 0 188.338 60.833 A 20.11 20.11 0 0 0 189.014 62.012 A 14.33 14.33 0 0 0 194.141 66.943 Q 197.363 68.799 202.197 68.799 A 18.954 18.954 0 0 0 210.444 66.883 A 21.827 21.827 0 0 0 210.571 66.821 A 66.478 66.478 0 0 0 215.73 64.043 A 56.17 56.17 0 0 0 218.018 62.598 Z M 110.484 57.788 A 29.526 29.526 0 0 0 111.572 49.658 Q 111.572 42.627 108.789 36.865 A 22.251 22.251 0 0 0 100.732 27.686 Q 95.459 24.268 87.988 24.268 A 28.65 28.65 0 0 0 83.573 24.597 A 21.976 21.976 0 0 0 75.22 27.637 A 22.487 22.487 0 0 0 66.919 36.768 Q 64.014 42.529 64.014 49.658 A 33.249 33.249 0 0 0 64.194 53.156 A 26.973 26.973 0 0 0 66.895 62.549 A 22.22 22.22 0 0 0 75.098 71.582 A 21.127 21.127 0 0 0 81.304 74.173 A 26.828 26.828 0 0 0 87.695 74.902 A 28.453 28.453 0 0 0 92.08 74.576 A 21.758 21.758 0 0 0 100.366 71.558 A 22.64 22.64 0 0 0 108.643 62.476 A 25.888 25.888 0 0 0 110.484 57.788 Z M 101.172 49.561 Q 101.172 44.092 99.731 39.355 A 20.916 20.916 0 0 0 98.053 35.32 A 15.89 15.89 0 0 0 95.337 31.689 A 9.995 9.995 0 0 0 88.583 28.778 A 13.246 13.246 0 0 0 87.891 28.76 A 11.987 11.987 0 0 0 84.277 29.281 A 9.718 9.718 0 0 0 80.298 31.689 A 16.048 16.048 0 0 0 77.206 36.057 A 21.342 21.342 0 0 0 75.928 39.355 A 34.126 34.126 0 0 0 74.6 46.872 A 40.229 40.229 0 0 0 74.512 49.561 A 36.211 36.211 0 0 0 75.289 57.166 A 32.163 32.163 0 0 0 75.952 59.741 A 21.043 21.043 0 0 0 77.602 63.741 A 15.856 15.856 0 0 0 80.347 67.432 A 9.995 9.995 0 0 0 87.1 70.343 A 13.246 13.246 0 0 0 87.793 70.361 A 11.763 11.763 0 0 0 91.435 69.82 A 9.732 9.732 0 0 0 95.337 67.432 A 16.213 16.213 0 0 0 98.438 63.064 A 21.596 21.596 0 0 0 99.731 59.766 A 33.68 33.68 0 0 0 101.093 52.084 A 39.667 39.667 0 0 0 101.172 49.561 Z M 91.602 1.66 L 104.199 18.604 L 98.193 18.604 L 87.891 8.691 L 77.49 18.604 L 71.484 18.604 L 84.082 1.66 L 91.602 1.66 Z M 213.623 8.887 L 198.389 18.604 L 192.725 18.604 L 206.006 3.076 A 12.32 12.32 0 0 1 206.95 2.073 Q 207.475 1.578 208.005 1.214 A 7.226 7.226 0 0 1 208.179 1.099 Q 208.962 0.594 210.228 0.449 A 9.695 9.695 0 0 1 211.328 0.391 A 7.046 7.046 0 0 1 212.591 0.496 Q 213.287 0.623 213.819 0.904 A 2.964 2.964 0 0 1 214.917 1.88 A 6.352 6.352 0 0 1 215.601 3.188 A 4.793 4.793 0 0 1 215.918 4.883 A 4.923 4.923 0 0 1 215.788 6.042 A 3.789 3.789 0 0 1 215.283 7.227 A 5.742 5.742 0 0 1 213.687 8.844 A 6.56 6.56 0 0 1 213.623 8.887 Z M 186.035 43.066 L 208.008 43.066 L 208.008 40.869 A 17.028 17.028 0 0 0 207.586 36.986 A 12.578 12.578 0 0 0 205.64 32.568 A 7.654 7.654 0 0 0 200.685 29.423 A 12.11 12.11 0 0 0 198.291 29.199 A 11.008 11.008 0 0 0 190.221 32.57 A 13.983 13.983 0 0 0 189.893 32.91 A 13.549 13.549 0 0 0 186.886 38.198 Q 186.197 40.398 186.035 43.066 Z"></path>
</svg>